<svg width="20" height="20" viewBox="0 0 20 20" fill="none" xmlns="http://www.w3.org/2000/svg">
<path d="M15.0156 10.9844H10.9844V15.0156H9.01562V10.9844H4.98438V9.01562H9.01562V4.98438H10.9844V9.01562H15.0156V10.9844ZM10 0.015625C8.6875 0.015625 7.40625 0.265625 6.15625 0.765625C4.9375 1.26563 3.85938 1.98438 2.92188 2.92188C1.98438 3.85938 1.26562 4.95312 0.765625 6.20312C0.265625 7.42188 0.015625 8.6875 0.015625 10C0.015625 11.3125 0.265625 12.5938 0.765625 13.8438C1.26562 15.0625 1.98438 16.1406 2.92188 17.0781C3.85938 18.0156 4.9375 18.7344 6.15625 19.2344C7.40625 19.7344 8.6875 19.9844 10 19.9844C11.3125 19.9844 12.5781 19.7344 13.7969 19.2344C15.0469 18.7344 16.1406 18.0156 17.0781 17.0781C18.0156 16.1406 18.7344 15.0625 19.2344 13.8438C19.7344 12.5938 19.9844 11.3125 19.9844 10C19.9844 8.6875 19.7344 7.42188 19.2344 6.20312C18.7344 4.95312 18.0156 3.85938 17.0781 2.92188C16.1406 1.98438 15.0469 1.26563 13.7969 0.765625C12.5781 0.265625 11.3125 0.015625 10 0.015625Z" fill="#00ACC1"/>
</svg>
