<svg width="18" height="21" viewBox="0 0 18 21" fill="none" xmlns="http://www.w3.org/2000/svg">
<path d="M15.9844 18.9844H2.01562V8.01562H15.9844V18.9844ZM12.9844 0.984375V3H5.01562V0.984375H3V3H2.01562C1.45312 3 0.96875 3.20312 0.5625 3.60938C0.1875 3.98438 0 4.45312 0 5.01562V18.9844C0 19.5469 0.1875 20.0312 0.5625 20.4375C0.96875 20.8125 1.45312 21 2.01562 21H15.9844C16.5469 21 17.0156 20.8125 17.3906 20.4375C17.7969 20.0312 18 19.5469 18 18.9844V5.01562C18 4.45312 17.7969 3.98438 17.3906 3.60938C17.0156 3.20312 16.5469 3 15.9844 3H15V0.984375H12.9844ZM14.0156 12H9V17.0156H14.0156V12Z" fill="#37474F"/>
</svg>
