<svg width="20" height="22" viewBox="0 0 20 22" fill="none" xmlns="http://www.w3.org/2000/svg">
<path d="M5.01562 10H12.9844V12.0156H5.01562V10ZM6.98438 18.0156H3V1.98438H9.98438V7H15V10.0938L17.0156 8.07812V6.01562L11.0156 0.015625H3C2.4375 0.015625 1.95312 0.21875 1.54688 0.625C1.17188 1 0.984375 1.45313 0.984375 1.98438V18.0156C0.984375 18.5469 1.17188 19 1.54688 19.375C1.95312 19.7812 2.4375 19.9844 3 19.9844H6.98438V18.0156ZM5.01562 16H9.09375L9.98438 15.1094V13.9844H5.01562V16ZM17.2031 10.9844C17.3281 10.9844 17.4531 11.0625 17.5781 11.2188L18.8906 12.4844C18.9844 12.6094 19.0312 12.75 19.0312 12.9062C19.0312 13.0625 18.9844 13.1875 18.8906 13.2812L17.9062 14.3125L15.7969 12.2031L16.7812 11.2188C16.9375 11.0625 17.0781 10.9844 17.2031 10.9844ZM17.2031 14.9219L11.1094 21.0156H9V18.9062L15.0938 12.8125L17.2031 14.9219Z" fill="#37474F"/>
</svg>
