<svg width="20" height="20" viewBox="0 0 20 20" fill="none" xmlns="http://www.w3.org/2000/svg">
<path d="M18.0156 0.015625C18.5469 0.015625 19 0.21875 19.375 0.625C19.7812 1 19.9844 1.45313 19.9844 1.98438V13.9844C19.9844 14.5469 19.7812 15.0312 19.375 15.4375C19 15.8125 18.5469 16 18.0156 16H4L0.015625 19.9844V1.98438C0.015625 1.45313 0.203125 1 0.578125 0.625C0.984375 0.21875 1.45312 0.015625 1.98438 0.015625H18.0156ZM1.98438 1.98438V15.1562L3.15625 13.9844H18.0156V1.98438H1.98438ZM4 4.98438H16V7H4V4.98438ZM4 9.01562H13V10.9844H4V9.01562Z" fill="#37474F"/>
</svg>
