<svg width="18" height="21" viewBox="0 0 18 21" fill="none" xmlns="http://www.w3.org/2000/svg">
<path d="M14.0156 9H3.98438V6.98438H14.0156V9ZM14.0156 12.9844H3.98438V11.0156H14.0156V12.9844ZM11.0156 17.0156H3.98438V15H11.0156V17.0156ZM9 3C9.28125 3 9.51562 3.09375 9.70312 3.28125C9.89062 3.46875 9.98438 3.70312 9.98438 3.98438C9.98438 4.26562 9.89062 4.51562 9.70312 4.73438C9.51562 4.92188 9.28125 5.01562 9 5.01562C8.71875 5.01562 8.48438 4.92188 8.29688 4.73438C8.10938 4.51562 8.01562 4.26562 8.01562 3.98438C8.01562 3.70312 8.10938 3.46875 8.29688 3.28125C8.48438 3.09375 8.71875 3 9 3ZM15.9844 3H11.8125C11.5938 2.40625 11.2188 1.92188 10.6875 1.54688C10.1875 1.17188 9.625 0.984375 9 0.984375C8.375 0.984375 7.79688 1.17188 7.26562 1.54688C6.76562 1.92188 6.40625 2.40625 6.1875 3H2.01562C1.45312 3 0.96875 3.20312 0.5625 3.60938C0.1875 3.98438 0 4.45312 0 5.01562V18.9844C0 19.5469 0.1875 20.0312 0.5625 20.4375C0.96875 20.8125 1.45312 21 2.01562 21H15.9844C16.5469 21 17.0156 20.8125 17.3906 20.4375C17.7969 20.0312 18 19.5469 18 18.9844V5.01562C18 4.45312 17.7969 3.98438 17.3906 3.60938C17.0156 3.20312 16.5469 3 15.9844 3Z" fill="#00ACC1"/>
</svg>
