<svg width="24" height="12" viewBox="0 0 24 12" fill="none" xmlns="http://www.w3.org/2000/svg">
<path d="M3 8.01562L3.51562 8.0625L8.0625 3.51562C7.96875 3.17188 7.96875 2.82812 8.0625 2.48438C8.15625 2.14062 8.32812 1.84375 8.57812 1.59375C8.98438 1.1875 9.45312 0.984375 9.98438 0.984375C10.5469 0.984375 11.0156 1.1875 11.3906 1.59375C11.6719 1.84375 11.8438 2.14062 11.9062 2.48438C12 2.82812 12.0156 3.17188 11.9531 3.51562L14.4844 6.04688L15 6C15.2188 6 15.3906 6.01562 15.5156 6.04688L19.0781 2.48438C19.0156 2.39062 18.9844 2.23438 18.9844 2.01562C18.9844 1.45312 19.1719 0.984375 19.5469 0.609375C19.9531 0.203125 20.4375 0 21 0C21.5625 0 22.0312 0.203125 22.4062 0.609375C22.8125 0.984375 23.0156 1.45312 23.0156 2.01562C23.0156 2.54688 22.8125 3.01562 22.4062 3.42188C22.0312 3.79688 21.5625 3.98438 21 3.98438C20.7812 3.98438 20.6094 3.96875 20.4844 3.9375L16.9219 7.5C16.9844 7.59375 17.0156 7.76562 17.0156 8.01562C17.0156 8.54688 16.8125 9.01562 16.4062 9.42188C16.0312 9.79688 15.5625 9.98438 15 9.98438C14.4375 9.98438 13.9531 9.79688 13.5469 9.42188C13.1719 9.01562 12.9844 8.54688 12.9844 8.01562L13.0781 7.5L10.5 4.92188C10.1562 5.01562 9.82812 5.01562 9.51562 4.92188L4.92188 9.51562L5.01562 9.98438C5.01562 10.5469 4.8125 11.0312 4.40625 11.4375C4.03125 11.8125 3.5625 12 3 12C2.4375 12 1.95312 11.8125 1.54688 11.4375C1.17188 11.0312 0.984375 10.5625 0.984375 10.0312C0.984375 9.46875 1.17188 9 1.54688 8.625C1.95312 8.21875 2.4375 8.01562 3 8.01562Z" fill="#37474F"/>
</svg>
