<svg width="20" height="16" viewBox="0 0 20 16" fill="none" xmlns="http://www.w3.org/2000/svg">
<path d="M11.0781 7.40625C11.7031 6.53125 12.0156 5.5625 12.0156 4.5C12.0156 3.4375 11.7031 2.46875 11.0781 1.59375C11.6406 1.1875 12.2812 0.984375 13 0.984375C13.9688 0.984375 14.7969 1.32812 15.4844 2.01562C16.1719 2.70313 16.5156 3.53125 16.5156 4.5C16.5156 5.46875 16.1719 6.29688 15.4844 6.98438C14.7969 7.67188 13.9688 8.01562 13 8.01562C12.2812 8.01562 11.6406 7.8125 11.0781 7.40625ZM3.48438 4.5C3.48438 3.78125 3.6875 3.14062 4.09375 2.57812C4.5 1.98437 5.01562 1.54688 5.64062 1.26562C6.29688 0.984375 6.96875 0.921875 7.65625 1.07812C8.375 1.20313 8.98438 1.51562 9.48438 2.01562C9.98438 2.51563 10.2969 3.125 10.4219 3.84375C10.5781 4.53125 10.5156 5.20312 10.2344 5.85938C9.95312 6.48438 9.51562 7 8.92188 7.40625C8.35938 7.8125 7.71875 8.01562 7 8.01562C6.03125 8.01562 5.20312 7.67188 4.51562 6.98438C3.82812 6.29688 3.48438 5.46875 3.48438 4.5ZM5.5 4.5C5.5 4.90625 5.64062 5.26562 5.92188 5.57812C6.23438 5.85938 6.59375 6 7 6C7.40625 6 7.75 5.85938 8.03125 5.57812C8.34375 5.26562 8.5 4.90625 8.5 4.5C8.5 4.09375 8.34375 3.75 8.03125 3.46875C7.75 3.15625 7.40625 3 7 3C6.59375 3 6.23438 3.15625 5.92188 3.46875C5.64062 3.75 5.5 4.09375 5.5 4.5ZM13.9844 14.0156V15.9844H0.015625V14.0156L0.0625 13.5938C0.125 13.25 0.25 12.9219 0.4375 12.6094C0.71875 12.1406 1.07812 11.7344 1.51562 11.3906C2.07812 10.9844 2.76562 10.6562 3.57812 10.4062C4.54688 10.125 5.6875 9.98438 7 9.98438C9.0625 9.98438 10.7031 10.3281 11.9219 11.0156C12.7969 11.5156 13.4062 12.1719 13.75 12.9844C13.9062 13.3594 13.9844 13.7031 13.9844 14.0156ZM12.0156 14.0156C11.9219 13.5156 11.5312 13.0781 10.8438 12.7031C9.9375 12.2344 8.65625 12 7 12C5.875 12 4.90625 12.125 4.09375 12.375C3.40625 12.5625 2.875 12.8281 2.5 13.1719C2.1875 13.4531 2.01562 13.7344 1.98438 14.0156H12.0156ZM13.9375 9.98438C14.5625 10.4844 15.0469 11.0938 15.3906 11.8125C15.7656 12.5 15.9688 13.2344 16 14.0156V15.9844H19.9844V14.0156L19.9375 13.6406C19.875 13.3281 19.7656 13.0156 19.6094 12.7031C19.3906 12.2656 19.0781 11.8906 18.6719 11.5781C18.2031 11.1406 17.6094 10.7969 16.8906 10.5469C16.0469 10.2656 15.0625 10.0781 13.9375 9.98438Z" fill="#37474F"/>
</svg>
